<svg width="28" height="28" viewBox="0 2 34 28" xmlns="http://www.w3.org/2000/svg">
  <defs>
    <linearGradient id="a" x1="48.6%" y1="-5.6%" x2="51.1%" y2="96%">
      <stop stop-color="#A75584" offset="2%"/>
      <stop stop-color="#B6496F" offset="42%"/>
      <stop stop-color="#D64455" offset="82%"/>
      <stop stop-color="#E0434D" offset="91%"/>
    </linearGradient>
    <linearGradient id="b" x1="74.5%" y1="9.4%" x2="-1.9%" y2="218%">
      <stop stop-color="#FFE065" offset="0%"/>
      <stop stop-color="#FFC906" offset="13%"/>
      <stop stop-color="#F59D31" offset="26%"/>
      <stop stop-color="#ED6948" offset="47%"/>
    </linearGradient>
    <linearGradient id="c" x1="44.2%" y1="-0.04%" x2="56.7%" y2="109.8%">
      <stop stop-color="#CF5C6C" offset="2%"/>
      <stop stop-color="#EB6661" offset="27%"/>
      <stop stop-color="#F0774F" offset="65%"/>
      <stop stop-color="#F08441" offset="96%"/>
    </linearGradient>
  </defs>
  <g fill-rule="nonzero">
    <path d="M34.39 1.38v18.1s.06 2.8-2.27 5.47c-2.33 2.66-5.4 2.98-6.21 2.98H22.42l.44-20.14s.06-3.02 2.6-5.55C27.9-.17 30.98 0 30.98 0h2.07s1.34-.13 1.34 1.38z" fill="url(#a)"/>
    <path d="M11.3 15.67l.1 12.26H1.21S0 27.9 0 26.96V23.28s-.04-2.7 2.06-4.98c2.1-2.27 4.62-2.57 5.4-2.57 1.2 0 3.84-.06 3.84-.06z" fill="url(#b)"/>
    <path d="M22.92 27.93H10.84l.47-12.26s-.14-2.92 2.57-5.52c1.86-1.78 3.59-2.23 5.1-2.23h3.88l.06 20.01z" fill="url(#c)"/>
    <path d="M22.42 27.93s.2 0 .5 0l-.06-20-.48 20z" fill="#B50D31" opacity=".61"/>
    <polygon points="11.3 15.52 10.83 27.93 11.4 27.93" fill="#C84E28" opacity=".59"/>
  </g>
</svg>
